<svg xmlns="http://www.w3.org/2000/svg" version="1.1" xmlns:xlink="http://www.w3.org/1999/xlink" xmlns:svgjs="http://svgjs.dev/svgjs" viewBox="0 0 1422 800" opacity="1"><defs><linearGradient x1="50%" y1="0%" x2="50%" y2="100%" id="oooscillate-grad"><stop stop-color="hsl(199, 73%, 62%)" stop-opacity="1" offset="0%"></stop><stop stop-color="hsl(121, 73%, 75%)" stop-opacity="1" offset="100%"></stop></linearGradient></defs>
<g stroke-width="2" stroke="url(#oooscillate-grad)" fill="none" stroke-linecap="round"><path d="M 0 608 Q 355.5 -100 711 400 Q 1066.5 900 1422 608" opacity="0.10"></path><path d="M 0 592 Q 355.5 -100 711 400 Q 1066.5 900 1422 592" opacity="0.09"></path><path d="M 0 576 Q 355.5 -100 711 400 Q 1066.5 900 1422 576" opacity="0.43"></path><path d="M 0 560 Q 355.5 -100 711 400 Q 1066.5 900 1422 560" opacity="0.17"></path><path d="M 0 544 Q 355.5 -100 711 400 Q 1066.5 900 1422 544" opacity="0.27"></path><path d="M 0 528 Q 355.5 -100 711 400 Q 1066.5 900 1422 528" opacity="0.43"></path><path d="M 0 512 Q 355.5 -100 711 400 Q 1066.5 900 1422 512" opacity="0.13"></path><path d="M 0 496 Q 355.5 -100 711 400 Q 1066.5 900 1422 496" opacity="0.73"></path><path d="M 0 480 Q 355.5 -100 711 400 Q 1066.5 900 1422 480" opacity="0.92"></path><path d="M 0 464 Q 355.5 -100 711 400 Q 1066.5 900 1422 464" opacity="0.77"></path><path d="M 0 448 Q 355.5 -100 711 400 Q 1066.5 900 1422 448" opacity="0.71"></path><path d="M 0 432 Q 355.5 -100 711 400 Q 1066.5 900 1422 432" opacity="0.71"></path><path d="M 0 416 Q 355.5 -100 711 400 Q 1066.5 900 1422 416" opacity="0.53"></path><path d="M 0 400 Q 355.5 -100 711 400 Q 1066.5 900 1422 400" opacity="0.73"></path><path d="M 0 384 Q 355.5 -100 711 400 Q 1066.5 900 1422 384" opacity="0.18"></path><path d="M 0 368 Q 355.5 -100 711 400 Q 1066.5 900 1422 368" opacity="0.70"></path><path d="M 0 352 Q 355.5 -100 711 400 Q 1066.5 900 1422 352" opacity="0.83"></path><path d="M 0 336 Q 355.5 -100 711 400 Q 1066.5 900 1422 336" opacity="0.71"></path><path d="M 0 320 Q 355.5 -100 711 400 Q 1066.5 900 1422 320" opacity="0.76"></path><path d="M 0 304 Q 355.5 -100 711 400 Q 1066.5 900 1422 304" opacity="0.99"></path><path d="M 0 288 Q 355.5 -100 711 400 Q 1066.5 900 1422 288" opacity="0.29"></path><path d="M 0 272 Q 355.5 -100 711 400 Q 1066.5 900 1422 272" opacity="0.10"></path><path d="M 0 256 Q 355.5 -100 711 400 Q 1066.5 900 1422 256" opacity="0.53"></path><path d="M 0 240 Q 355.5 -100 711 400 Q 1066.5 900 1422 240" opacity="0.71"></path><path d="M 0 224 Q 355.5 -100 711 400 Q 1066.5 900 1422 224" opacity="0.41"></path><path d="M 0 208 Q 355.5 -100 711 400 Q 1066.5 900 1422 208" opacity="0.44"></path><path d="M 0 192 Q 355.5 -100 711 400 Q 1066.5 900 1422 192" opacity="0.65"></path><path d="M 0 176 Q 355.5 -100 711 400 Q 1066.5 900 1422 176" opacity="0.10"></path><path d="M 0 160 Q 355.5 -100 711 400 Q 1066.5 900 1422 160" opacity="0.39"></path><path d="M 0 144 Q 355.5 -100 711 400 Q 1066.5 900 1422 144" opacity="0.58"></path><path d="M 0 128 Q 355.5 -100 711 400 Q 1066.5 900 1422 128" opacity="0.57"></path><path d="M 0 112 Q 355.5 -100 711 400 Q 1066.5 900 1422 112" opacity="0.11"></path><path d="M 0 96 Q 355.5 -100 711 400 Q 1066.5 900 1422 96" opacity="0.85"></path><path d="M 0 80 Q 355.5 -100 711 400 Q 1066.5 900 1422 80" opacity="0.97"></path><path d="M 0 64 Q 355.5 -100 711 400 Q 1066.5 900 1422 64" opacity="0.66"></path><path d="M 0 48 Q 355.5 -100 711 400 Q 1066.5 900 1422 48" opacity="0.28"></path><path d="M 0 32 Q 355.5 -100 711 400 Q 1066.5 900 1422 32" opacity="0.37"></path></g></svg>